/* XPM */
static char *f8d89caaeca54355963e5012166c43f8f5Og8s9UDJhZ0zEZ[] = {
/* columns rows colors chars-per-pixel */
"64 64 6 1 ",
"  c #21110D",
". c #503625",
"X c #2E543F",
"o c #755338",
"O c #9D7658",
"+ c #509B66",
/* pixels */
"++++++++++++++++++++++++++++++++++++++++++++++++++++++++++++++++",
"++++++++++++++++++++++++++++++++++++++++++++++++++++++++++++++++",
"++++++++++++++++++++++++++++++++++++++++++++++++++++++++++++++++",
"++++++++++++++++++++++++++++++++++++++++++++++++++++++++++++++++",
"++++++++++++++++                                ++++++++++++++++",
"++++++++++++++++                                ++++++++++++++++",
"++++++++++++++++                                ++++++++++++++++",
"++++++++++++++++                                ++++++++++++++++",
"++++++++++++    ooooOOOOOOOOOOOOOOOOOOOOOOOOoooo    ++++++++++++",
"++++++++++++    ooooOOOOOOOOOOOOOOOOOOOOOOOOoooo    ++++++++++++",
"++++++++++++    ooooOOOOOOOOOOOOOOOOOOOOOOOOoooo    ++++++++++++",
"++++++++++++    ooooOOOOOOOOOOOOOOOOOOOOOOOOoooo    ++++++++++++",
"++++++++    ooooOOOOOOOOooooooooooooooooOOOOOOOOoooo    ++++++++",
"++++++++    ooooOOOOOOOOooooooooooooooooOOOOOOOOoooo    ++++++++",
"++++++++    ooooOOOOOOOOooooooooooooooooOOOOOOOOoooo    ++++++++",
"++++++++    ooooOOOOOOOOooooooooooooooooOOOOOOOOoooo    ++++++++",
"++++++++    ooooOOOOOOOOooooooooooooooooOOOOOOOOoooo    ++++++++",
"++++++++    ooooOOOOOOOOooooooooooooooooOOOOOOOOoooo    ++++++++",
"++++++++    ooooOOOOOOOOooooooooooooooooOOOOOOOOoooo    ++++++++",
"++++++++    ooooOOOOOOOOooooooooooooooooOOOOOOOOoooo    ++++++++",
"++++++++    ....ooooOOOOOOOOOOOOOOOOOOOOOOOOoooo....    ++++++++",
"++++++++    ....ooooOOOOOOOOOOOOOOOOOOOOOOOOoooo....    ++++++++",
"++++++++    ....ooooOOOOOOOOOOOOOOOOOOOOOOOOoooo....    ++++++++",
"++++++++    ....ooooOOOOOOOOOOOOOOOOOOOOOOOOoooo....    ++++++++",
"++++++++        ....oooooooooooooooooooooooo....        ++++++++",
"++++++++        ....oooooooooooooooooooooooo....        ++++++++",
"++++++++        ....oooooooooooooooooooooooo....        ++++++++",
"++++++++        ....oooooooooooooooooooooooo....        ++++++++",
"++++++++++++                                        ++++++++++++",
"++++++++++++                                        ++++++++++++",
"++++++++++++                                        ++++++++++++",
"++++++++++++                                        ++++++++++++",
"++++++++++++    ........oooooooo....oooooooo....    ++++++++++++",
"++++++++++++    ........oooooooo....oooooooo....    ++++++++++++",
"++++++++++++    ........oooooooo....oooooooo....    ++++++++++++",
"++++++++++++    ........oooooooo....oooooooo....    ++++++++++++",
"++++++++++++    ....oooooooooooooooo....oooo....    ++++++++++++",
"++++++++++++    ....oooooooooooooooo....oooo....    ++++++++++++",
"++++++++++++    ....oooooooooooooooo....oooo....    ++++++++++++",
"++++++++++++    ....oooooooooooooooo....oooo....    ++++++++++++",
"++++++++++++    ....oooooooooooooooo....oooo....    ++++++++++++",
"++++++++++++    ....oooooooooooooooo....oooo....    ++++++++++++",
"++++++++++++    ....oooooooooooooooo....oooo....    ++++++++++++",
"++++++++++++    ....oooooooooooooooo....oooo....    ++++++++++++",
"++++++++XXXX    ....oooo........oooooooooooo....    ++++++++++++",
"++++++++XXXX    ....oooo........oooooooooooo....    ++++++++++++",
"++++++++XXXX    ....oooo........oooooooooooo....    ++++++++++++",
"++++++++XXXX    ....oooo........oooooooooooo....    ++++++++++++",
"++++++++XXXX    ........        oooooooo........    XXXX++++++++",
"++++++++XXXX    ........        oooooooo........    XXXX++++++++",
"++++++++XXXX    ........        oooooooo........    XXXX++++++++",
"++++++++XXXX    ........        oooooooo........    XXXX++++++++",
"++++XXXXXXXXXXXX    ....        ....    ....    XXXXXXXXXXXX++++",
"++++XXXXXXXXXXXX    ....        ....    ....    XXXXXXXXXXXX++++",
"++++XXXXXXXXXXXX    ....        ....    ....    XXXXXXXXXXXX++++",
"++++XXXXXXXXXXXX    ....        ....    ....    XXXXXXXXXXXX++++",
"++++++++++++XXXXXXXXXXXXXXXXXXXXXXXXXXXXXXXXXXXXXXXX++++++++++++",
"++++++++++++XXXXXXXXXXXXXXXXXXXXXXXXXXXXXXXXXXXXXXXX++++++++++++",
"++++++++++++XXXXXXXXXXXXXXXXXXXXXXXXXXXXXXXXXXXXXXXX++++++++++++",
"++++++++++++XXXXXXXXXXXXXXXXXXXXXXXXXXXXXXXXXXXXXXXX++++++++++++",
"++++++++++++++++XXXXXXXX++++++++++++++++++++XXXX++++++++++++++++",
"++++++++++++++++XXXXXXXX++++++++++++++++++++XXXX++++++++++++++++",
"++++++++++++++++XXXXXXXX++++++++++++++++++++XXXX++++++++++++++++",
"++++++++++++++++XXXXXXXX++++++++++++++++++++XXXX++++++++++++++++"
};
