/* XPM */
static char *result[] = {
/* columns rows colors chars-per-pixel */
"64 64 6 1 ",
"  c #21110D",
". c #503625",
"X c #2E543F",
"o c #755338",
"O c #9D7658",
"+ c #509B66",
/* pixels */
"++++++++++++++++++++    OOOOOOOOOOOOOOOO    ++++++++++++++++++++",
"++++++++++++++++++++    OOOOOOOOOOOOOOOO    ++++++++++++++++++++",
"++++++++++++++++++++    OOOOOOOOOOOOOOOO    ++++++++++++++++++++",
"++++++++++++++++++++    OOOOOOOOOOOOOOOO    ++++++++++++++++++++",
"++++++++++++++++                                ++++++++++++++++",
"++++++++++++++++                                ++++++++++++++++",
"++++++++++++++++                                ++++++++++++++++",
"++++++++++++++++                                ++++++++++++++++",
"++++++++++++    ooooOOOOOOOOOOOOOOOOOOOOOOOOoooo    ++++++++++++",
"++++++++++++    ooooOOOOOOOOOOOOOOOOOOOOOOOOoooo    ++++++++++++",
"++++++++++++    ooooOOOOOOOOOOOOOOOOOOOOOOOOoooo    ++++++++++++",
"++++++++++++    ooooOOOOOOOOOOOOOOOOOOOOOOOOoooo    ++++++++++++",
"++++++++    ooooOOOOOOOOooooooooooooooooOOOOOOOOoooo    ++++++++",
"++++++++    ooooOOOOOOOOooooooooooooooooOOOOOOOOoooo    ++++++++",
"++++++++    ooooOOOOOOOOooooooooooooooooOOOOOOOOoooo    ++++++++",
"++++++++    ooooOOOOOOOOooooooooooooooooOOOOOOOOoooo    ++++++++",
"++++++++    ooooOOOOOOOOooooooooooooooooOOOOOOOOoooo    ++++++++",
"++++++++    ooooOOOOOOOOooooooooooooooooOOOOOOOOoooo    ++++++++",
"++++++++    ooooOOOOOOOOooooooooooooooooOOOOOOOOoooo    ++++++++",
"++++++++    ooooOOOOOOOOooooooooooooooooOOOOOOOOoooo    ++++++++",
"++++++++    ....ooooOOOOOOOOOOOOOOOOOOOOOOOOoooo....    ++++++++",
"++++++++    ....ooooOOOOOOOOOOOOOOOOOOOOOOOOoooo....    ++++++++",
"++++++++    ....ooooOOOOOOOOOOOOOOOOOOOOOOOOoooo....    ++++++++",
"++++++++    ....ooooOOOOOOOOOOOOOOOOOOOOOOOOoooo....    ++++++++",
"                ....oooooooooooooooooooooooo....        ++++++++",
"                ....oooooooooooooooooooooooo....        ++++++++",
"                ....oooooooooooooooooooooooo....        ++++++++",
"                ....oooooooooooooooooooooooo....        ++++++++",
"OOOOOOOOOOOO                                        ++++++++++++",
"OOOOOOOOOOOO                                        ++++++++++++",
"OOOOOOOOOOOO                                        ++++++++++++",
"OOOOOOOOOOOO                                        ++++++++++++",
"........oooo    ........oooo....oooooooooooo....    ++++++++++++",
"........oooo    ........oooo....oooooooooooo....    ++++++++++++",
"........oooo    ........oooo....oooooooooooo....    ++++++++++++",
"........oooo    ........oooo....oooooooooooo....    ++++++++++++",
"....oooooooo    ....oooooooooooo........oooo....    ++++++++++++",
"....oooooooo    ....oooooooooooo........oooo....    ++++++++++++",
"....oooooooo    ....oooooooooooo........oooo....    ++++++++++++",
"....oooooooo    ....oooooooooooo........oooo....    ++++++++++++",
"oooo....oooo    ....oooooooooooo........oooo....    ++++++++++++",
"oooo....oooo    ....oooooooooooo........oooo....    ++++++++++++",
"oooo....oooo    ....oooooooooooo........oooo....    ++++++++++++",
"oooo....oooo    ....oooooooooooo........oooo....    ++++++++++++",
"                ....oooo....oooooooooooooooo....    XXXX++++++++",
"                ....oooo....oooooooooooooooo....    XXXX++++++++",
"                ....oooo....oooooooooooooooo....    XXXX++++++++",
"                ....oooo....oooooooooooooooo....    XXXX++++++++",
"++++++++XXXX    ........    oooooooooooo........    XXXX++++++++",
"++++++++XXXX    ........    oooooooooooo........    XXXX++++++++",
"++++++++XXXX    ........    oooooooooooo........    XXXX++++++++",
"++++++++XXXX    ........    oooooooooooo........    XXXX++++++++",
"++++XXXXXXXXXXXX    ....    ....        ....    XXXXXXXXXXXX++++",
"++++XXXXXXXXXXXX    ....    ....        ....    XXXXXXXXXXXX++++",
"++++XXXXXXXXXXXX    ....    ....        ....    XXXXXXXXXXXX++++",
"++++XXXXXXXXXXXX    ....    ....        ....    XXXXXXXXXXXX++++",
"++++++++++++XXXXXXXXXXXXXXXXXXXXXXXXXXXXXXXXXXXXXXXX++++++++++++",
"++++++++++++XXXXXXXXXXXXXXXXXXXXXXXXXXXXXXXXXXXXXXXX++++++++++++",
"++++++++++++XXXXXXXXXXXXXXXXXXXXXXXXXXXXXXXXXXXXXXXX++++++++++++",
"++++++++++++XXXXXXXXXXXXXXXXXXXXXXXXXXXXXXXXXXXXXXXX++++++++++++",
"++++++++++++++++XXXX++++++++++++++++++++XXXXXXXX++++++++++++++++",
"++++++++++++++++XXXX++++++++++++++++++++XXXXXXXX++++++++++++++++",
"++++++++++++++++XXXX++++++++++++++++++++XXXXXXXX++++++++++++++++",
"++++++++++++++++XXXX++++++++++++++++++++XXXXXXXX++++++++++++++++"
};
