/* XPM */
static char *_0bbb75e29dc41298ee82a5bd4494cfe1bHbqyGoGHe0elja[] = {
/* columns rows colors chars-per-pixel */
"64 64 7 1 ",
"  c #160F13",
". c #21110D",
"X c #503625",
"o c #2E543F",
"O c #755338",
"+ c #9D7658",
"@ c #509B66",
/* pixels */
"@@@@@@@@@@@@@@@@@@@@....++++++++++++++++....@@@@@@@@@@@@@@@@@@@@",
"@@@@@@@@@@@@@@@@@@@@....++++++++++++++++....@@@@@@@@@@@@@@@@@@@@",
"@@@@@@@@@@@@@@@@@@@@....++++++++++++++++....@@@@@@@@@@@@@@@@@@@@",
"@@@@@@@@@@@@@@@@@@@@....++++++++++++++++....@@@@@@@@@@@@@@@@@@@@",
"@@@@@@@@@@@@@@@@................................@@@@@@@@@@@@@@@@",
"@@@@@@@@@@@@@@@@................................@@@@@@@@@@@@@@@@",
"@@@@@@@@@@@@@@@@................................@@@@@@@@@@@@@@@@",
"@@@@@@@@@@@@@@@@................................@@@@@@@@@@@@@@@@",
"@@@@@@@@@@@@....OOOO++++++++++++++++++++++++OOOO....@@@@@@@@@@@@",
"@@@@@@@@@@@@....OOOO++++++++++++++++++++++++OOOO....@@@@@@@@@@@@",
"@@@@@@@@@@@@....OOOO++++++++++++++++++++++++OOOO....@@@@@@@@@@@@",
"@@@@@@@@@@@@....OOOO++++++++++++++++++++++++OOOO....@@@@@@@@@@@@",
"@@@@@@@@....OOOO++++++++OOOOOOOOOOOOOOOO++++++++OOOO....@@@@@@@@",
"@@@@@@@@....OOOO++++++++OOOOOOOOOOOOOOOO++++++++OOOO....@@@@@@@@",
"@@@@@@@@....OOOO++++++++OOOOOOOOOOOOOOOO++++++++OOOO....@@@@@@@@",
"@@@@@@@@....OOOO++++++++OOOOOOOOOOOOOOOO++++++++OOOO....@@@@@@@@",
"@@@@@@@@....OOOO++++++++OOOOOOOOOOOOOOOO++++++++OOOO....@@@@@@@@",
"@@@@@@@@....OOOO++++++++OOOOOOOOOOOOOOOO++++++++OOOO....@@@@@@@@",
"@@@@@@@@....OOOO++++++++OOOOOOOOOOOOOOOO++++++++OOOO....@@@@@@@@",
"@@@@@@@@....OOOO++++++++OOOOOOOOOOOOOOOO++++++++OOOO....@@@@@@@@",
"@@@@@@@@....XXXXOOOO++++++++++++++++++++++++OOOOXXXX....@@@@@@@@",
"@@@@@@@@....XXXXOOOO++++++++++++++++++++++++OOOOXXXX....@@@@@@@@",
"@@@@@@@@....XXXXOOOO++++++++++++++++++++++++OOOOXXXX....@@@@@@@@",
"@@@@@@@@....XXXXOOOO++++++++++++++++++++++++OOOOXXXX....@@@@@@@@",
"................XXXXOOOOOOOOOOOOOOOOOOOOOOOOXXXX................",
"................XXXXOOOOOOOOOOOOOOOOOOOOOOOOXXXX................",
"................XXXXOOOOOOOOOOOOOOOOOOOOOOOOXXXX................",
"................XXXXOOOOOOOOOOOOOOOOOOOOOOOOXXXX................",
"++++++++++++........................................++++++++++++",
"++++++++++++........................................++++++++++++",
"++++++++++++........................................++++++++++++",
"++++++++++++........................................++++++++++++",
"XXXXXXXXOOOO....XXXXXXXXOOOOXXXXOOOOOOOOOOOOXXXX....XXXXOOOOOOOO",
"XXXXXXXXOOOO....XXXXXXXXOOOOXXXXOOOOOOOOOOOOXXXX....XXXXOOOOOOOO",
"XXXXXXXXOOOO....XXXXXXXXOOOOXXXXOOOOOOOOOOOOXXXX....XXXXOOOOOOOO",
"XXXXXXXXOOOO....XXXXXXXXOOOOXXXXOOOOOOOOOOOOXXXX....XXXXOOOOOOOO",
"XXXXOOOOOOOO....XXXXOOOOOOOOOOOOXXXXXXXXOOOOXXXX....OOOOXXXXXXXX",
"XXXXOOOOOOOO....XXXXOOOOOOOOOOOOXXXXXXXXOOOOXXXX....OOOOXXXXXXXX",
"XXXXOOOOOOOO....XXXXOOOOOOOOOOOOXXXXXXXXOOOOXXXX....OOOOXXXXXXXX",
"XXXXOOOOOOOO....XXXXOOOOOOOOOOOOXXXXXXXXOOOOXXXX....OOOOXXXXXXXX",
"OOOOXXXXOOOO....XXXXOOOOOOOOOOOOXXXXXXXXOOOOXXXX....XXXXXXXXXXXX",
"OOOOXXXXOOOO....XXXXOOOOOOOOOOOOXXXXXXXXOOOOXXXX....XXXXXXXXXXXX",
"OOOOXXXXOOOO....XXXXOOOOOOOOOOOOXXXXXXXXOOOOXXXX....XXXXXXXXXXXX",
"OOOOXXXXOOOO....XXXXOOOOOOOOOOOOXXXXXXXXOOOOXXXX....XXXXXXXXXXXX",
"................XXXXOOOOXXXXOOOOOOOOOOOOOOOOXXXX................",
"................XXXXOOOOXXXXOOOOOOOOOOOOOOOOXXXX................",
"................XXXXOOOOXXXXOOOOOOOOOOOOOOOOXXXX................",
"................XXXXOOOOXXXXOOOOOOOOOOOOOOOOXXXX.... ...........",
"@@@@@@@@oooo....XXXXXXXX....OOOOOOOOOOOOXXXXXXXX....oooo@@@@@@@@",
"@@@@@@@@oooo....XXXXXXXX....OOOOOOOOOOOOXXXXXXXX....oooo@@@@@@@@",
"@@@@@@@@oooo....XXXXXXXX....OOOOOOOOOOOOXXXXXXXX....oooo@@@@@@@@",
"@@@@@@@@oooo....XXXXXXXX....OOOOOOOOOOOOXXXXXXXX....oooo@@@@@@@@",
"@@@@oooooooooooo....XXXX....XXXX........XXXX....oooooooooooo@@@@",
"@@@@oooooooooooo....XXXX....XXXX........XXXX....oooooooooooo@@@@",
"@@@@oooooooooooo....XXXX....XXXX........XXXX....oooooooooooo@@@@",
"@@@@oooooooooooo....XXXX....XXXX........XXXX....oooooooooooo@@@@",
"@@@@@@@@@@@@oooooooooooooooooooooooooooooooooooooooo@@@@@@@@@@@@",
"@@@@@@@@@@@@oooooooooooooooooooooooooooooooooooooooo@@@@@@@@@@@@",
"@@@@@@@@@@@@oooooooooooooooooooooooooooooooooooooooo@@@@@@@@@@@@",
"@@@@@@@@@@@@oooooooooooooooooooooooooooooooooooooooo@@@@@@@@@@@@",
"@@@@@@@@@@@@@@@@oooo@@@@@@@@@@@@@@@@@@@@oooooooo@@@@@@@@@@@@@@@@",
"@@@@@@@@@@@@@@@@oooo@@@@@@@@@@@@@@@@@@@@oooooooo@@@@@@@@@@@@@@@@",
"@@@@@@@@@@@@@@@@oooo@@@@@@@@@@@@@@@@@@@@oooooooo@@@@@@@@@@@@@@@@",
"@@@@@@@@@@@@@@@@oooo@@@@@@@@@@@@@@@@@@@@oooooooo@@@@@@@@@@@@@@@@"
};
