/* XPM */
static char *_4a9603429e64dd0e7c7d857ea53bed5tR3WsecjTHeyA2b4[] = {
/* columns rows colors chars-per-pixel */
"64 64 2 1 ",
"  c black",
". c #509B66",
/* pixels */
"................................................................",
"................................................................",
"................................................................",
"................................................................",
"....        ........................................        ....",
"....        ........................................        ....",
"....        ........................................        ....",
"....        ........................................        ....",
"....            ................................            ....",
"....            ................................            ....",
"....            ................................            ....",
"....            ................................            ....",
"........            ........................            ........",
"........            ........................            ........",
"........            ........................            ........",
"........            ........................            ........",
"............            ................            ............",
"............            ................            ............",
"............            ................            ............",
"............            ................            ............",
"................            ........            ................",
"................            ........            ................",
"................            ........            ................",
"................            ........            ................",
"....................                        ....................",
"....................                        ....................",
"....................                        ....................",
"....................                        ....................",
"........................                ........................",
"........................                ........................",
"........................                ........................",
"........................                ........................",
"........................                ........................",
"........................                ........................",
"........................                ........................",
"........................                ........................",
"....................                        ....................",
"....................                        ....................",
"....................                        ....................",
"....................                        ....................",
"................            ........            ................",
"................            ........            ................",
"................            ........            ................",
"................            ........            ................",
"............            ................            ............",
"............            ................            ............",
"............            ................            ............",
"............            ................            ............",
"........            ........................            ........",
"........            ........................            ........",
"........            ........................            ........",
"........            ........................            ........",
"....            ................................            ....",
"....            ................................            ....",
"....            ................................            ....",
"....            ................................            ....",
"....        ........................................        ....",
"....        ........................................        ....",
"....        ........................................        ....",
"....        ........................................        ....",
"................................................................",
"................................................................",
"................................................................",
"................................................................"
};
