/* XPM */
static char *b195addbee6a4270ea63a5ebeb00e385N2nrEOVHuymCi9Kh[] = {
/* columns rows colors chars-per-pixel */
"64 64 10 1 ",
"  c #21110D",
". c #342319",
"X c #242A3D",
"o c #503625",
"O c #2E543F",
"+ c #755338",
"@ c #414B66",
"# c #509B66",
"$ c #677598",
"% c #B6BEC8",
/* pixels */
"########                                                ########",
"########                                                ########",
"########                                                ########",
"########                                                ########",
"####    oooo$$$$$$$$oooooooooooooooooooooooo$$$$$$$$oooo    ####",
"####    oooo$$$$$$$$oooooooooooooooooooooooo$$$$$$$$oooo    ####",
"####    oooo$$$$$$$$oooooooooooooooooooooooo$$$$$$$$oooo    ####",
"####    oooo$$$$$$$$oooooooooooooooooooooooo$$$$$$$$oooo    ####",
"####    ++++%%%%%%%%++++++++++++++++++++++++%%%%%%%%++++    ####",
"####    ++++%%%%%%%%++++++++++++++++++++++++%%%%%%%%++++    ####",
"####    ++++%%%%%%%%++++++++++++++++++++++++%%%%%%%%++++    ####",
"####    ++++%%%%%%%%++++++++++++++++++++++++%%%%%%%%++++    ####",
"####    ++++%%%%%%%%++++++++++++++++++++++++%%%%%%%%++++    ####",
"####    ++++%%%%%%%%++++++++++++++++++++++++%%%%%%%%++++    ####",
"####    ++++%%%%%%%%++++++++++++++++++++++++%%%%%%%%++++    ####",
"####    ++++%%%%%%%%++++++++++++++++++++++++%%%%%%%%++++    ####",
"####    ++++%%%%%%%%++++++++++++++++++++++++%%%%%%%%++++    ####",
"####    ++++%%%%%%%%++++++++++++++++++++++++%%%%%%%%++++    ####",
"####    ++++%%%%%%%%++++++++++++++++++++++++%%%%%%%%++++    ####",
"####    ++++%%%%%%%%++++++++++++++++++++++++%%%%%%%%++++    ####",
"####    ++++%%%%%%%%++++++++++++++++++++++++%%%%%%%%++++    ####",
"####    ++++%%%%%%%%++++++++++++++++++++++++%%%%%%%%++++    ####",
"####    ++++%%%%%%%%++++++++++++++++++++++++%%%%%%%%++++    ####",
"####    ++++%%%%%%%%++++++++++++++++++++++++%%%%%%%%++++    ####",
"####    oooo$$$$$$$$oooooooooooooooooooooooo$$$$$$$$oooo    ####",
"####    oooo$$$$$$$$oooooooooooooooooooooooo$$$$$$$$oooo    ####",
"####    oooo$$$$$$$$oooooooooooooooooooooooo$$$$$$$$oooo    ####",
"####    oooo$$$$$$$$oooooooooooooooooooooooo$$$$$$$$oooo    ####",
"####    $$$$$$$$$$$$$$$$%%%%%%%%%%%%%%%%$$$$$$$$$$$$$$$$    ####",
"####    $$$$$$$$$$$$$$$$%%%%%%%%%%%%%%%%$$$$$$$$$$$$$$$$    ####",
"####    $$$$$$$$$$$$$$$$%%%%%%%%%%%%%%%%$$$$$$$$$$$$$$$$    ####",
"####    $$$$$$$$$$$$$$$$%%%%%%%%%%%%%%%%$$$$$$$$$$$$$$$$    ####",
"####    ....@@@@@@@@....@@@@XXXXXXXX@@@@....@@@@@@@@....    ####",
"####    ....@@@@@@@@....@@@@XXXXXXXX@@@@....@@@@@@@@....    ####",
"####    ....@@@@@@@@....@@@@XXXXXXXX@@@@....@@@@@@@@....    ####",
"####    ....@@@@@@@@....@@@@XXXXXXXX@@@@....@@@@@@@@....    ####",
"OOOO    ....$$$$$$$$oooo$$$$XXXXXXXX$$$$oooo$$$$$$$$....    OOOO",
"OOOO    ....$$$$$$$$oooo$$$$XXXXXXXX$$$$oooo$$$$$$$$....    OOOO",
"OOOO    ....$$$$$$$$oooo$$$$XXXXXXXX$$$$oooo$$$$$$$$....    OOOO",
"OOOO    ....$$$$$$$$oooo$$$$XXXXXXXX$$$$oooo$$$$$$$$....    OOOO",
"OOOO    ....$$$$$$$$oooo$$$$$$$$$$$$$$$$oooo$$$$$$$$....    OOOO",
"OOOO    ....$$$$$$$$oooo$$$$$$$$$$$$$$$$oooo$$$$$$$$....    OOOO",
"OOOO    ....$$$$$$$$oooo$$$$$$$$$$$$$$$$oooo$$$$$$$$....    OOOO",
"OOOO    ....$$$$$$$$oooo$$$$$$$$$$$$$$$$oooo$$$$$$$$....    OOOO",
"OOOO    ....$$$$$$$$oooooooooooooooooooooooo$$$$$$$$....    OOOO",
"OOOO    ....$$$$$$$$oooooooooooooooooooooooo$$$$$$$$....    OOOO",
"OOOO    ....$$$$$$$$oooooooooooooooooooooooo$$$$$$$$....    OOOO",
"OOOO    ....$$$$$$$$oooooooooooooooooooooooo$$$$$$$$....    OOOO",
"OOOOOOOO    $$$$$$$$oooooooooooooooooooooooo$$$$$$$$    OOOOOOOO",
"OOOOOOOO    $$$$$$$$oooooooooooooooooooooooo$$$$$$$$    OOOOOOOO",
"OOOOOOOO    $$$$$$$$oooooooooooooooooooooooo$$$$$$$$    OOOOOOOO",
"OOOOOOOO    $$$$$$$$oooooooooooooooooooooooo$$$$$$$$    OOOOOOOO",
"####OOOOOOOOOOOOOOOOOOOOOOOOOOOOOOOOOOOOOOOOOOOOOOOOOOOOOOOO####",
"####OOOOOOOOOOOOOOOOOOOOOOOOOOOOOOOOOOOOOOOOOOOOOOOOOOOOOOOO####",
"####OOOOOOOOOOOOOOOOOOOOOOOOOOOOOOOOOOOOOOOOOOOOOOOOOOOOOOOO####",
"####OOOOOOOOOOOOOOOOOOOOOOOOOOOOOOOOOOOOOOOOOOOOOOOOOOOOOOOO####",
"############OOOOOOOOOOOOOOOOOOOOOOOOOOOOOOOOOOOOOOOO############",
"############OOOOOOOOOOOOOOOOOOOOOOOOOOOOOOOOOOOOOOOO############",
"############OOOOOOOOOOOOOOOOOOOOOOOOOOOOOOOOOOOOOOOO############",
"############OOOOOOOOOOOOOOOOOOOOOOOOOOOOOOOOOOOOOOOO############",
"################################################################",
"################################################################",
"################################################################",
"################################################################"
};
