/* XPM */
static char *aebf6df724e94559a24eaff33a64e3c6NH8ZFEK98jotLcEY[] = {
/* columns rows colors chars-per-pixel */
"64 64 6 1 ",
"  c #21110D",
". c #503625",
"X c #2E543F",
"o c #755338",
"O c #9D7658",
"+ c #509B66",
/* pixels */
"++++++++++++++++++++    OOOOOOOOOOOOOOOO    ++++++++++++++++++++",
"++++++++++++++++++++    OOOOOOOOOOOOOOOO    ++++++++++++++++++++",
"++++++++++++++++++++    OOOOOOOOOOOOOOOO    ++++++++++++++++++++",
"++++++++++++++++++++    OOOOOOOOOOOOOOOO    ++++++++++++++++++++",
"++++++++++++++++                                ++++++++++++++++",
"++++++++++++++++                                ++++++++++++++++",
"++++++++++++++++                                ++++++++++++++++",
"++++++++++++++++                                ++++++++++++++++",
"++++++++++++    ooooOOOOOOOOOOOOOOOOOOOOOOOOoooo    ++++++++++++",
"++++++++++++    ooooOOOOOOOOOOOOOOOOOOOOOOOOoooo    ++++++++++++",
"++++++++++++    ooooOOOOOOOOOOOOOOOOOOOOOOOOoooo    ++++++++++++",
"++++++++++++    ooooOOOOOOOOOOOOOOOOOOOOOOOOoooo    ++++++++++++",
"++++++++    ooooOOOOOOOOooooooooooooooooOOOOOOOOoooo    ++++++++",
"++++++++    ooooOOOOOOOOooooooooooooooooOOOOOOOOoooo    ++++++++",
"++++++++    ooooOOOOOOOOooooooooooooooooOOOOOOOOoooo    ++++++++",
"++++++++    ooooOOOOOOOOooooooooooooooooOOOOOOOOoooo    ++++++++",
"++++++++    ooooOOOOOOOOooooooooooooooooOOOOOOOOoooo    ++++++++",
"++++++++    ooooOOOOOOOOooooooooooooooooOOOOOOOOoooo    ++++++++",
"++++++++    ooooOOOOOOOOooooooooooooooooOOOOOOOOoooo    ++++++++",
"++++++++    ooooOOOOOOOOooooooooooooooooOOOOOOOOoooo    ++++++++",
"++++++++    ....ooooOOOOOOOOOOOOOOOOOOOOOOOOoooo....    ++++++++",
"++++++++    ....ooooOOOOOOOOOOOOOOOOOOOOOOOOoooo....    ++++++++",
"++++++++    ....ooooOOOOOOOOOOOOOOOOOOOOOOOOoooo....    ++++++++",
"++++++++    ....ooooOOOOOOOOOOOOOOOOOOOOOOOOoooo....    ++++++++",
"++++++++++++    ....oooooooooooooooooooooooo....    ++++++++++++",
"++++++++++++    ....oooooooooooooooooooooooo....    ++++++++++++",
"++++++++++++    ....oooooooooooooooooooooooo....    ++++++++++++",
"++++++++++++    ....oooooooooooooooooooooooo....    ++++++++++++",
"++++++++++++                                        ++++++++++++",
"++++++++++++                                        ++++++++++++",
"++++++++++++                                        ++++++++++++",
"++++++++++++                                        ++++++++++++",
"++++++++++++    ........oooo....oooooooooooo....    ++++++++++++",
"++++++++++++    ........oooo....oooooooooooo....    ++++++++++++",
"++++++++++++    ........oooo....oooooooooooo....    ++++++++++++",
"++++++++++++    ........oooo....oooooooooooo....    ++++++++++++",
"++++++++++++    ....oooooooooooo........oooo....    ++++++++++++",
"++++++++++++    ....oooooooooooo........oooo....    ++++++++++++",
"++++++++++++    ....oooooooooooo........oooo....    ++++++++++++",
"++++++++++++    ....oooooooooooo........oooo....    ++++++++++++",
"++++++++++++    ....oooooooooooo........oooo....    ++++++++++++",
"++++++++++++    ....oooooooooooo........oooo....    ++++++++++++",
"++++++++++++    ....oooooooooooo........oooo....    ++++++++++++",
"++++++++++++    ....oooooooooooo........oooo....    ++++++++++++",
"++++++++XXXX    ....oooo....oooooooooooooooo....    XXXX++++++++",
"++++++++XXXX    ....oooo....oooooooooooooooo....    XXXX++++++++",
"++++++++XXXX    ....oooo....oooooooooooooooo....    XXXX++++++++",
"++++++++XXXX    ....oooo....oooooooooooooooo....    XXXX++++++++",
"++++++++XXXX    ........    oooooooooooo........    XXXX++++++++",
"++++++++XXXX    ........    oooooooooooo........    XXXX++++++++",
"++++++++XXXX    ........    oooooooooooo........    XXXX++++++++",
"++++++++XXXX    ........    oooooooooooo........    XXXX++++++++",
"++++XXXXXXXXXXXX    ....    ....        ....    XXXXXXXXXXXX++++",
"++++XXXXXXXXXXXX    ....    ....        ....    XXXXXXXXXXXX++++",
"++++XXXXXXXXXXXX    ....    ....        ....    XXXXXXXXXXXX++++",
"++++XXXXXXXXXXXX    ....    ....        ....    XXXXXXXXXXXX++++",
"++++++++++++XXXXXXXXXXXXXXXXXXXXXXXXXXXXXXXXXXXXXXXX++++++++++++",
"++++++++++++XXXXXXXXXXXXXXXXXXXXXXXXXXXXXXXXXXXXXXXX++++++++++++",
"++++++++++++XXXXXXXXXXXXXXXXXXXXXXXXXXXXXXXXXXXXXXXX++++++++++++",
"++++++++++++XXXXXXXXXXXXXXXXXXXXXXXXXXXXXXXXXXXXXXXX++++++++++++",
"++++++++++++++++XXXX++++++++++++++++++++XXXXXXXX++++++++++++++++",
"++++++++++++++++XXXX++++++++++++++++++++XXXXXXXX++++++++++++++++",
"++++++++++++++++XXXX++++++++++++++++++++XXXXXXXX++++++++++++++++",
"++++++++++++++++XXXX++++++++++++++++++++XXXXXXXX++++++++++++++++"
};
