/* XPM */
static char *result[] = {
/* columns rows colors chars-per-pixel */
"64 64 6 1 ",
"  c #21110D",
". c #503625",
"X c #2E543F",
"o c #755338",
"O c #9D7658",
"+ c #509B66",
/* pixels */
"++++++++++++++++++++    OOOOOOOOOOOOOOOO    ++++++++++++++++++++",
"++++++++++++++++++++    OOOOOOOOOOOOOOOO    ++++++++++++++++++++",
"++++++++++++++++++++    OOOOOOOOOOOOOOOO    ++++++++++++++++++++",
"++++++++++++++++++++    OOOOOOOOOOOOOOOO    ++++++++++++++++++++",
"++++++++++++++++                                ++++++++++++++++",
"++++++++++++++++                                ++++++++++++++++",
"++++++++++++++++                                ++++++++++++++++",
"++++++++++++++++                                ++++++++++++++++",
"++++++++++++    ooooOOOOOOOOOOOOOOOOOOOOOOOOoooo    ++++++++++++",
"++++++++++++    ooooOOOOOOOOOOOOOOOOOOOOOOOOoooo    ++++++++++++",
"++++++++++++    ooooOOOOOOOOOOOOOOOOOOOOOOOOoooo    ++++++++++++",
"++++++++++++    ooooOOOOOOOOOOOOOOOOOOOOOOOOoooo    ++++++++++++",
"++++++++    ooooOOOOOOOOooooooooooooooooOOOOOOOOoooo    ++++++++",
"++++++++    ooooOOOOOOOOooooooooooooooooOOOOOOOOoooo    ++++++++",
"++++++++    ooooOOOOOOOOooooooooooooooooOOOOOOOOoooo    ++++++++",
"++++++++    ooooOOOOOOOOooooooooooooooooOOOOOOOOoooo    ++++++++",
"++++++++    ooooOOOOOOOOooooooooooooooooOOOOOOOOoooo    ++++++++",
"++++++++    ooooOOOOOOOOooooooooooooooooOOOOOOOOoooo    ++++++++",
"++++++++    ooooOOOOOOOOooooooooooooooooOOOOOOOOoooo    ++++++++",
"++++++++    ooooOOOOOOOOooooooooooooooooOOOOOOOOoooo    ++++++++",
"++++++++    ....ooooOOOOOOOOOOOOOOOOOOOOOOOOoooo....    ++++++++",
"++++++++    ....ooooOOOOOOOOOOOOOOOOOOOOOOOOoooo....    ++++++++",
"++++++++    ....ooooOOOOOOOOOOOOOOOOOOOOOOOOoooo....    ++++++++",
"++++++++    ....ooooOOOOOOOOOOOOOOOOOOOOOOOOoooo....    ++++++++",
"++++++++        ....oooooooooooooooooooooooo....        ++++++++",
"++++++++        ....oooooooooooooooooooooooo....        ++++++++",
"++++++++        ....oooooooooooooooooooooooo....        ++++++++",
"++++++++        ....oooooooooooooooooooooooo....        ++++++++",
"++++++++++++                                        ++++++++++++",
"++++++++++++                                        ++++++++++++",
"++++++++++++                                        ++++++++++++",
"++++++++++++                                        ++++++++++++",
"++++++++++++    ........oooo........oooooooo....    ++++++++++++",
"++++++++++++    ........oooo........oooooooo....    ++++++++++++",
"++++++++++++    ........oooo........oooooooo....    ++++++++++++",
"++++++++++++    ........oooo........oooooooo....    ++++++++++++",
"++++++++++++    ....ooooOOOOOOOOOOOOOOOOoooo....    ++++++++++++",
"++++++++++++    ....ooooOOOOOOOOOOOOOOOOoooo....    ++++++++++++",
"++++++++++++    ....ooooOOOOOOOOOOOOOOOOoooo....    ++++++++++++",
"++++++++++++    ....ooooOOOOOOOOOOOOOOOOoooo....    ++++++++++++",
"++++++++++++    ....    OOOOOOOOOOOOOOOO    ....    ++++++++++++",
"++++++++++++    ....    OOOOOOOOOOOOOOOO    ....    ++++++++++++",
"++++++++++++    ....    OOOOOOOOOOOOOOOO    ....    ++++++++++++",
"++++++++++++    ....    OOOOOOOOOOOOOOOO    ....    ++++++++++++",
"++++++++XXXX    ....    OOOOOOOOOOOOOOOO    ....    XXXX++++++++",
"++++++++XXXX    ....    OOOOOOOOOOOOOOOO    ....    XXXX++++++++",
"++++++++XXXX    ....    OOOOOOOOOOOOOOOO    ....    XXXX++++++++",
"++++++++XXXX    ....    OOOOOOOOOOOOOOOO    ....    XXXX++++++++",
"++++++++XXXX    ....    OOOOOOOOOOOOOOOO    ....    XXXX++++++++",
"++++++++XXXX    ....    OOOOOOOOOOOOOOOO    ....    XXXX++++++++",
"++++++++XXXX    ....    OOOOOOOOOOOOOOOO    ....    XXXX++++++++",
"++++++++XXXX    ....    OOOOOOOOOOOOOOOO    ....    XXXX++++++++",
"++++XXXXXXXXXXXX        OOOOOOOOOOOOOOOO        XXXXXXXXXXXX++++",
"++++XXXXXXXXXXXX        OOOOOOOOOOOOOOOO        XXXXXXXXXXXX++++",
"++++XXXXXXXXXXXX        OOOOOOOOOOOOOOOO        XXXXXXXXXXXX++++",
"++++XXXXXXXXXXXX        OOOOOOOOOOOOOOOO        XXXXXXXXXXXX++++",
"++++++++++++XXXXXXXX    OOOOOOOOOOOOOOOO    XXXXXXXX++++++++++++",
"++++++++++++XXXXXXXX    OOOOOOOOOOOOOOOO    XXXXXXXX++++++++++++",
"++++++++++++XXXXXXXX    OOOOOOOOOOOOOOOO    XXXXXXXX++++++++++++",
"++++++++++++XXXXXXXX    OOOOOOOOOOOOOOOO    XXXXXXXX++++++++++++",
"++++++++++++++++XXXX    OOOOOOOOOOOOOOOO    XXXX++++++++++++++++",
"++++++++++++++++XXXX    OOOOOOOOOOOOOOOO    XXXX++++++++++++++++",
"++++++++++++++++XXXX    OOOOOOOOOOOOOOOO    XXXX++++++++++++++++",
"++++++++++++++++XXXX    OOOOOOOOOOOOOOOO    XXXX++++++++++++++++"
};
