/* XPM */
static char *result[] = {
/* columns rows colors chars-per-pixel */
"64 64 6 1 ",
"  c #21110D",
". c #503625",
"X c #2E543F",
"o c #755338",
"O c #9D7658",
"+ c #509B66",
/* pixels */
"++++++++++++++++++++++++++++++++++++++++++++++++++++++++++++++++",
"++++++++++++++++++++++++++++++++++++++++++++++++++++++++++++++++",
"++++++++++++++++++++++++++++++++++++++++++++++++++++++++++++++++",
"++++++++++++++++++++++++++++++++++++++++++++++++++++++++++++++++",
"++++++++++++++++                                ++++++++++++++++",
"++++++++++++++++                                ++++++++++++++++",
"++++++++++++++++                                ++++++++++++++++",
"++++++++++++++++                                ++++++++++++++++",
"++++++++++++    ooooOOOOOOOOOOOOOOOOOOOOOOOOoooo    ++++++++++++",
"++++++++++++    ooooOOOOOOOOOOOOOOOOOOOOOOOOoooo    ++++++++++++",
"++++++++++++    ooooOOOOOOOOOOOOOOOOOOOOOOOOoooo    ++++++++++++",
"++++++++++++    ooooOOOOOOOOOOOOOOOOOOOOOOOOoooo    ++++++++++++",
"++++++++    ooooOOOOOOOOooooooooooooooooOOOOOOOOoooo    ++++++++",
"++++++++    ooooOOOOOOOOooooooooooooooooOOOOOOOOoooo    ++++++++",
"++++++++    ooooOOOOOOOOooooooooooooooooOOOOOOOOoooo    ++++++++",
"++++++++    ooooOOOOOOOOooooooooooooooooOOOOOOOOoooo    ++++++++",
"++++++++    ooooOOOOOOOOooooooooooooooooOOOOOOOOoooo    ++++++++",
"++++++++    ooooOOOOOOOOooooooooooooooooOOOOOOOOoooo    ++++++++",
"++++++++    ooooOOOOOOOOooooooooooooooooOOOOOOOOoooo    ++++++++",
"++++++++    ooooOOOOOOOOooooooooooooooooOOOOOOOOoooo    ++++++++",
"++++++++    ....ooooOOOOOOOOOOOOOOOOOOOOOOOOoooo....    ++++++++",
"++++++++    ....ooooOOOOOOOOOOOOOOOOOOOOOOOOoooo....    ++++++++",
"++++++++    ....ooooOOOOOOOOOOOOOOOOOOOOOOOOoooo....    ++++++++",
"++++++++    ....ooooOOOOOOOOOOOOOOOOOOOOOOOOoooo....    ++++++++",
"                ....oooooooooooooooooooooooo....                ",
"                ....oooooooooooooooooooooooo....                ",
"                ....oooooooooooooooooooooooo....                ",
"                ....oooooooooooooooooooooooo....                ",
"OOOOOOOOOOOO                                        OOOOOOOOOOOO",
"OOOOOOOOOOOO                                        OOOOOOOOOOOO",
"OOOOOOOOOOOO                                        OOOOOOOOOOOO",
"OOOOOOOOOOOO                                        OOOOOOOOOOOO",
"........oooo    ........oooooooo....oooooooo....    ....oooooooo",
"........oooo    ........oooooooo....oooooooo....    ....oooooooo",
"........oooo    ........oooooooo....oooooooo....    ....oooooooo",
"........oooo    ........oooooooo....oooooooo....    ....oooooooo",
"....oooooooo    ....oooooooooooooooo....oooo....    oooo........",
"....oooooooo    ....oooooooooooooooo....oooo....    oooo........",
"....oooooooo    ....oooooooooooooooo....oooo....    oooo........",
"....oooooooo    ....oooooooooooooooo....oooo....    oooo........",
"oooo....oooo    ....oooooooooooooooo....oooo....    ............",
"oooo....oooo    ....oooooooooooooooo....oooo....    ............",
"oooo....oooo    ....oooooooooooooooo....oooo....    ............",
"oooo....oooo    ....oooooooooooooooo....oooo....    ............",
"                ....oooo........oooooooooooo....                ",
"                ....oooo........oooooooooooo....                ",
"                ....oooo........oooooooooooo....                ",
"                ....oooo........oooooooooooo....                ",
"++++++++XXXX    ........        oooooooo........    XXXX++++++++",
"++++++++XXXX    ........        oooooooo........    XXXX++++++++",
"++++++++XXXX    ........        oooooooo........    XXXX++++++++",
"++++++++XXXX    ........        oooooooo........    XXXX++++++++",
"++++XXXXXXXXXXXX    ....        ....    ....    XXXXXXXXXXXX++++",
"++++XXXXXXXXXXXX    ....        ....    ....    XXXXXXXXXXXX++++",
"++++XXXXXXXXXXXX    ....        ....    ....    XXXXXXXXXXXX++++",
"++++XXXXXXXXXXXX    ....        ....    ....    XXXXXXXXXXXX++++",
"++++++++++++XXXXXXXXXXXXXXXXXXXXXXXXXXXXXXXXXXXXXXXX++++++++++++",
"++++++++++++XXXXXXXXXXXXXXXXXXXXXXXXXXXXXXXXXXXXXXXX++++++++++++",
"++++++++++++XXXXXXXXXXXXXXXXXXXXXXXXXXXXXXXXXXXXXXXX++++++++++++",
"++++++++++++XXXXXXXXXXXXXXXXXXXXXXXXXXXXXXXXXXXXXXXX++++++++++++",
"++++++++++++++++XXXXXXXX++++++++++++++++++++XXXX++++++++++++++++",
"++++++++++++++++XXXXXXXX++++++++++++++++++++XXXX++++++++++++++++",
"++++++++++++++++XXXXXXXX++++++++++++++++++++XXXX++++++++++++++++",
"++++++++++++++++XXXXXXXX++++++++++++++++++++XXXX++++++++++++++++"
};
