/* XPM */
static char *_92ffcbbbcee4cdecf2d705d42fea5eetKzpXEVw2BY6gFo1[] = {
/* columns rows colors chars-per-pixel */
"64 64 11 1 ",
"  c black",
". c #21110D",
"X c #402717",
"o c #573A23",
"O c #AC7B5D",
"+ c #509B66",
"@ c #1D438A",
"# c #2C65B5",
"$ c #787E97",
"% c #A4A8B5",
"& c #C1AC8F",
/* pixels */
"++++++++++++++++++++++++        ++++                ++++++++++++",
"++++++++++++++++++++++++        ++++                ++++++++++++",
"++++++++++++++++++++++++        ++++                ++++++++++++",
"++++++++++++++++++++++++        ++++                ++++++++++++",
"++++++++++++++++            oooo    XXXXoooooooo    ++++++++++++",
"++++++++++++++++            oooo    XXXXoooooooo    ++++++++++++",
"++++++++++++++++            oooo    XXXXoooooooo    ++++++++++++",
"++++++++++++++++            oooo    XXXXoooooooo    ++++++++++++",
"++++++++        ooooooooXXXXooooXXXXoooooooo        ++++++++++++",
"++++++++        ooooooooXXXXooooXXXXoooooooo        ++++++++++++",
"++++++++        ooooooooXXXXooooXXXXoooooooo        ++++++++++++",
"++++++++        ooooooooXXXXooooXXXXoooooooo        ++++++++++++",
"++++    ooooooooooooooooooooooooooooooooooooooooXXXX    ++++++++",
"++++    ooooooooooooooooooooooooooooooooooooooooXXXX    ++++++++",
"++++    ooooooooooooooooooooooooooooooooooooooooXXXX    ++++++++",
"++++    ooooooooooooooooooooooooooooooooooooooooXXXX    ++++++++",
"++++    XXXXOOOOOOOOOOOOOOOOXXXXooooooooXXXXXXXXooooXXXX    ++++",
"++++    XXXXOOOOOOOOOOOOOOOOXXXXooooooooXXXXXXXXooooXXXX    ++++",
"++++    XXXXOOOOOOOOOOOOOOOOXXXXooooooooXXXXXXXXooooXXXX    ++++",
"++++    XXXXOOOOOOOOOOOOOOOOXXXXooooooooXXXXXXXXooooXXXX    ++++",
"++++        ....&&&&&&&&....OOOOooooXXXXOOOOooooooooXXXX    ++++",
"++++        ....&&&&&&&&....OOOOooooXXXXOOOOooooooooXXXX    ++++",
"++++        ....&&&&&&&&....OOOOooooXXXXOOOOooooooooXXXX    ++++",
"++++        ....&&&&&&&&....OOOOooooXXXXOOOOooooooooXXXX    ++++",
"++++        ....&&&&&&&&....&&&&XXXXOOOOOOOOooooXXXXXXXX    ++++",
"++++        ....&&&&&&&&....&&&&XXXXOOOOOOOOooooXXXXXXXX    ++++",
"++++        ....&&&&&&&&....&&&&XXXXOOOOOOOOooooXXXXXXXX    ++++",
"++++        ....&&&&&&&&....&&&&XXXXOOOOOOOOooooXXXXXXXX    ++++",
"++++++++    &&&&&&&&&&&&&&&&&&&&&&&&OOOOOOOOXXXXXXXX    ++++++++",
"++++++++    &&&&&&&&&&&&&&&&&&&&&&&&OOOOOOOOXXXXXXXX    ++++++++",
"++++++++    &&&&&&&&&&&&&&&&&&&&&&&&OOOOOOOOXXXXXXXX    ++++++++",
"++++++++    &&&&&&&&&&&&&&&&&&&&&&&&OOOOOOOOXXXXXXXX    ++++++++",
"++++++++    OOOO&&&&&&&&&&&&&&&&OOOOOOOOXXXXXXXX    ++++++++++++",
"++++++++    OOOO&&&&&&&&&&&&&&&&OOOOOOOOXXXXXXXX    ++++++++++++",
"++++++++    OOOO&&&&&&&&&&&&&&&&OOOOOOOOXXXXXXXX    ++++++++++++",
"++++++++    OOOO&&&&&&&&&&&&&&&&OOOOOOOOXXXXXXXX    ++++++++++++",
"++++++++++++    OOOOOOOOOOOOOOOOOOOOXXXXXXXX    ++++++++++++++++",
"++++++++++++    OOOOOOOOOOOOOOOOOOOOXXXXXXXX    ++++++++++++++++",
"++++++++++++    OOOOOOOOOOOOOOOOOOOOXXXXXXXX    ++++++++++++++++",
"++++++++++++    OOOOOOOOOOOOOOOOOOOOXXXXXXXX    ++++++++++++++++",
"++++++++++++    XXXX$$$$$$$$$$$$ooooXXXXXXXX    ++++++++++++++++",
"++++++++++++    XXXX$$$$$$$$$$$$ooooXXXXXXXX    ++++++++++++++++",
"++++++++++++    XXXX$$$$$$$$$$$$ooooXXXXXXXX    ++++++++++++++++",
"++++++++++++    XXXX$$$$$$$$$$$$ooooXXXXXXXX    ++++++++++++++++",
"++++++++++++    XXXX$$$$$$$$%%%%ooooooooXXXX    ++++++++++++++++",
"++++++++++++    XXXX$$$$$$$$%%%%ooooooooXXXX    ++++++++++++++++",
"++++++++++++    XXXX$$$$$$$$%%%%ooooooooXXXX    ++++++++++++++++",
"++++++++++++    XXXX$$$$$$$$%%%%ooooooooXXXX    ++++++++++++++++",
"++++++++    OOOOXXXX$$$$%%%%%%%%oooooooo&&&&&&&&    ++++++++++++",
"++++++++    OOOOXXXX$$$$%%%%%%%%oooooooo&&&&&&&&    ++++++++++++",
"++++++++    OOOOXXXX$$$$%%%%%%%%oooooooo&&&&&&&&    ++++++++++++",
"++++++++    OOOOXXXX$$$$%%%%%%%%oooooooo&&&&&&&&    ++++++++++++",
"++++++++    OOOOXXXX############oooooooo&&&&&&&&    ++++++++++++",
"++++++++    OOOOXXXX############oooooooo&&&&&&&&    ++++++++++++",
"++++++++    OOOOXXXX############oooooooo&&&&&&&&    ++++++++++++",
"++++++++    OOOOXXXX############oooooooo&&&&&&&&    ++++++++++++",
"++++++++++++        ########@@@@########@@@@    ++++++++++++++++",
"++++++++++++        ########@@@@########@@@@    ++++++++++++++++",
"++++++++++++        ########@@@@########@@@@    ++++++++++++++++",
"++++++++++++        ########@@@@########@@@@    ++++++++++++++++",
"++++++++++++++++    ooooXXXX        ooooXXXX    ++++++++++++++++",
"++++++++++++++++    ooooXXXX        ooooXXXX    ++++++++++++++++",
"++++++++++++++++    ooooXXXX        ooooXXXX    ++++++++++++++++",
"++++++++++++++++    ooooXXXX        ooooXXXX    ++++++++++++++++"
};
