/* XPM */
static char *a6746d4eb74042e0a88f51a1a418aa47X4b0XqgXrbxDZH22[] = {
/* columns rows colors chars-per-pixel */
"64 64 7 1 ",
"  c black",
". c #402717",
"X c #573A23",
"o c #AC7B5D",
"O c #509B66",
"+ c #1D438A",
"@ c #2C65B5",
/* pixels */
"OOOOOOOOOOOOOOOOOOOO            OOOO                OOOOOOOOOOOO",
"OOOOOOOOOOOOOOOOOOOO            OOOO                OOOOOOOOOOOO",
"OOOOOOOOOOOOOOOOOOOO            OOOO                OOOOOOOOOOOO",
"OOOOOOOOOOOOOOOOOOOO            OOOO                OOOOOOOOOOOO",
"OOOOOOOOOOOO            XXXXXXXX    ....XXXXXXXX    OOOOOOOOOOOO",
"OOOOOOOOOOOO            XXXXXXXX    ....XXXXXXXX    OOOOOOOOOOOO",
"OOOOOOOOOOOO            XXXXXXXX    ....XXXXXXXX    OOOOOOOOOOOO",
"OOOOOOOOOOOO            XXXXXXXX    ....XXXXXXXX    OOOOOOOOOOOO",
"OOOOOOOO    ....XXXXXXXXXXXXXXXX....XXXXXXXX        OOOOOOOOOOOO",
"OOOOOOOO    ....XXXXXXXXXXXXXXXX....XXXXXXXX        OOOOOOOOOOOO",
"OOOOOOOO    ....XXXXXXXXXXXXXXXX....XXXXXXXX        OOOOOOOOOOOO",
"OOOOOOOO    ....XXXXXXXXXXXXXXXX....XXXXXXXX        OOOOOOOOOOOO",
"OOOOOOOO    XXXXXXXXXXXXXXXXXXXXXXXXXXXXXXXXXXXX....    OOOOOOOO",
"OOOOOOOO    XXXXXXXXXXXXXXXXXXXXXXXXXXXXXXXXXXXX....    OOOOOOOO",
"OOOOOOOO    XXXXXXXXXXXXXXXXXXXXXXXXXXXXXXXXXXXX....    OOOOOOOO",
"OOOOOOOO    XXXXXXXXXXXXXXXXXXXXXXXXXXXXXXXXXXXX....    OOOOOOOO",
"OOOO    ....XXXXXXXXXXXXXXXXXXXXXXXXXXXXXXXXXXXXXXXX....    OOOO",
"OOOO    ....XXXXXXXXXXXXXXXXXXXXXXXXXXXXXXXXXXXXXXXX....    OOOO",
"OOOO    ....XXXXXXXXXXXXXXXXXXXXXXXXXXXXXXXXXXXXXXXX....    OOOO",
"OOOO    ....XXXXXXXXXXXXXXXXXXXXXXXXXXXXXXXXXXXXXXXX....    OOOO",
"OOOOOOOO    ............XXXXXXXXXXXXXXXX................    OOOO",
"OOOOOOOO    ............XXXXXXXXXXXXXXXX................    OOOO",
"OOOOOOOO    ............XXXXXXXXXXXXXXXX................    OOOO",
"OOOOOOOO    ............XXXXXXXXXXXXXXXX................    OOOO",
"OOOOOOOO    ........................................    OOOOOOOO",
"OOOOOOOO    ........................................    OOOOOOOO",
"OOOOOOOO    ........................................    OOOOOOOO",
"OOOOOOOO    ........................................    OOOOOOOO",
"OOOOOOOO    oooo................................oooo    OOOOOOOO",
"OOOOOOOO    oooo................................oooo    OOOOOOOO",
"OOOOOOOO    oooo................................oooo    OOOOOOOO",
"OOOOOOOO    oooo................................oooo    OOOOOOOO",
"OOOOOOOOOOOO    oooooooo................oooooooo    OOOOOOOOOOOO",
"OOOOOOOOOOOO    oooooooo................oooooooo    OOOOOOOOOOOO",
"OOOOOOOOOOOO    oooooooo................oooooooo    OOOOOOOOOOOO",
"OOOOOOOOOOOO    oooooooo................oooooooo    OOOOOOOOOOOO",
"OOOOOOOOOOOO    XXXXooooooooooooooooooooooooXXXX    OOOOOOOOOOOO",
"OOOOOOOOOOOO    XXXXooooooooooooooooooooooooXXXX    OOOOOOOOOOOO",
"OOOOOOOOOOOO    XXXXooooooooooooooooooooooooXXXX    OOOOOOOOOOOO",
"OOOOOOOOOOOO    XXXXooooooooooooooooooooooooXXXX    OOOOOOOOOOOO",
"OOOOOOOOOOOO    XXXXXXXXXXXXXXXXXXXXXXXXXXXXXXXX    OOOOOOOOOOOO",
"OOOOOOOOOOOO    XXXXXXXXXXXXXXXXXXXXXXXXXXXXXXXX    OOOOOOOOOOOO",
"OOOOOOOOOOOO    XXXXXXXXXXXXXXXXXXXXXXXXXXXXXXXX    OOOOOOOOOOOO",
"OOOOOOOOOOOO    XXXXXXXXXXXXXXXXXXXXXXXXXXXXXXXX    OOOOOOOOOOOO",
"OOOOOOOOOOOO    XXXXXXXXXXXXXXXXXXXXXXXXXXXXXXXX    OOOOOOOOOOOO",
"OOOOOOOOOOOO    XXXXXXXXXXXXXXXXXXXXXXXXXXXXXXXX    OOOOOOOOOOOO",
"OOOOOOOOOOOO    XXXXXXXXXXXXXXXXXXXXXXXXXXXXXXXX    OOOOOOOOOOOO",
"OOOOOOOOOOOO    XXXXXXXXXXXXXXXXXXXXXXXXXXXXXXXX    OOOOOOOOOOOO",
"OOOOOOOO    oooo....XXXXXXXXXXXXXXXXXXXXXXXX....oooo    OOOOOOOO",
"OOOOOOOO    oooo....XXXXXXXXXXXXXXXXXXXXXXXX....oooo    OOOOOOOO",
"OOOOOOOO    oooo....XXXXXXXXXXXXXXXXXXXXXXXX....oooo    OOOOOOOO",
"OOOOOOOO    oooo....XXXXXXXXXXXXXXXXXXXXXXXX....oooo    OOOOOOOO",
"OOOOOOOO    oooo++++@@@@@@@@@@@@++++@@@@@@@@++++oooo    OOOOOOOO",
"OOOOOOOO    oooo++++@@@@@@@@@@@@++++@@@@@@@@++++oooo    OOOOOOOO",
"OOOOOOOO    oooo++++@@@@@@@@@@@@++++@@@@@@@@++++oooo    OOOOOOOO",
"OOOOOOOO    oooo++++@@@@@@@@@@@@++++@@@@@@@@++++oooo    OOOOOOOO",
"OOOOOOOOOOOO    ++++++++++++++++    ++++++++++++    OOOOOOOOOOOO",
"OOOOOOOOOOOO    ++++++++++++++++    ++++++++++++    OOOOOOOOOOOO",
"OOOOOOOOOOOO    ++++++++++++++++    ++++++++++++    OOOOOOOOOOOO",
"OOOOOOOOOOOO    ++++++++++++++++    ++++++++++++    OOOOOOOOOOOO",
"OOOOOOOOOOOO    ........        OOOO    ........    OOOOOOOOOOOO",
"OOOOOOOOOOOO    ........        OOOO    ........    OOOOOOOOOOOO",
"OOOOOOOOOOOO    ........        OOOO    ........    OOOOOOOOOOOO",
"OOOOOOOOOOOO    ........        OOOO    ........    OOOOOOOOOOOO"
};
