/* XPM */
static char *c0a211c1474443ffee384e336415366aq2JOs37Os7BuiSoM[] = {
/* columns rows colors chars-per-pixel */
"64 64 11 1 ",
"  c black",
". c #21110D",
"X c #402717",
"o c #573A23",
"O c #AC7B5D",
"+ c #509B66",
"@ c #1D438A",
"# c #2C65B5",
"$ c #787E97",
"% c #A4A8B5",
"& c #C1AC8F",
/* pixels */
"++++++++++++                ++++            ++++++++++++++++++++",
"++++++++++++                ++++            ++++++++++++++++++++",
"++++++++++++                ++++            ++++++++++++++++++++",
"++++++++++++                ++++            ++++++++++++++++++++",
"++++++++++++    ooooooooXXXX    oooooooo            ++++++++++++",
"++++++++++++    ooooooooXXXX    oooooooo            ++++++++++++",
"++++++++++++    ooooooooXXXX    oooooooo            ++++++++++++",
"++++++++++++    ooooooooXXXX    oooooooo            ++++++++++++",
"++++++++++++        ooooooooXXXXooooooooooooooooXXXX    ++++++++",
"++++++++++++        ooooooooXXXXooooooooooooooooXXXX    ++++++++",
"++++++++++++        ooooooooXXXXooooooooooooooooXXXX    ++++++++",
"++++++++++++        ooooooooXXXXooooooooooooooooXXXX    ++++++++",
"++++++++    XXXXoooooooooooooooooooooooooooooooooooo    ++++++++",
"++++++++    XXXXoooooooooooooooooooooooooooooooooooo    ++++++++",
"++++++++    XXXXoooooooooooooooooooooooooooooooooooo    ++++++++",
"++++++++    XXXXoooooooooooooooooooooooooooooooooooo    ++++++++",
"++++    ooooooooXXXXOOOOOOOOOOOOOOOOOOOOOOOOOOOOXXXXoooo    ++++",
"++++    ooooooooXXXXOOOOOOOOOOOOOOOOOOOOOOOOOOOOXXXXoooo    ++++",
"++++    ooooooooXXXXOOOOOOOOOOOOOOOOOOOOOOOOOOOOXXXXoooo    ++++",
"++++    ooooooooXXXXOOOOOOOOOOOOOOOOOOOOOOOOOOOOXXXXoooo    ++++",
"++++    XXXXooooOOOO&&&&....&&&&&&&&....&&&&OOOOXXXX    ++++++++",
"++++    XXXXooooOOOO&&&&....&&&&&&&&....&&&&OOOOXXXX    ++++++++",
"++++    XXXXooooOOOO&&&&....&&&&&&&&....&&&&OOOOXXXX    ++++++++",
"++++    XXXXooooOOOO&&&&....&&&&&&&&....&&&&OOOOXXXX    ++++++++",
"++++++++    oooo&&&&&&&&....&&&&&&&&....&&&&&&&&&&&&    ++++++++",
"++++++++    oooo&&&&&&&&....&&&&&&&&....&&&&&&&&&&&&    ++++++++",
"++++++++    oooo&&&&&&&&....&&&&&&&&....&&&&&&&&&&&&    ++++++++",
"++++++++    oooo&&&&&&&&....&&&&&&&&....&&&&&&&&&&&&    ++++++++",
"++++++++    OOOO&&&&&&&&&&&&&&&&&&&&&&&&&&&&&&&&OOOO    ++++++++",
"++++++++    OOOO&&&&&&&&&&&&&&&&&&&&&&&&&&&&&&&&OOOO    ++++++++",
"++++++++    OOOO&&&&&&&&&&&&&&&&&&&&&&&&&&&&&&&&OOOO    ++++++++",
"++++++++    OOOO&&&&&&&&&&&&&&&&&&&&&&&&&&&&&&&&OOOO    ++++++++",
"++++++++++++    OOOO&&&&&&&&&&&&&&&&&&&&&&&&OOOO    ++++++++++++",
"++++++++++++    OOOO&&&&&&&&&&&&&&&&&&&&&&&&OOOO    ++++++++++++",
"++++++++++++    OOOO&&&&&&&&&&&&&&&&&&&&&&&&OOOO    ++++++++++++",
"++++++++++++    OOOO&&&&&&&&&&&&&&&&&&&&&&&&OOOO    ++++++++++++",
"++++++++++++    XXXXOOOOOOOOOOOOOOOOOOOOOOOOXXXX    ++++++++++++",
"++++++++++++    XXXXOOOOOOOOOOOOOOOOOOOOOOOOXXXX    ++++++++++++",
"++++++++++++    XXXXOOOOOOOOOOOOOOOOOOOOOOOOXXXX    ++++++++++++",
"++++++++++++    XXXXOOOOOOOOOOOOOOOOOOOOOOOOXXXX    ++++++++++++",
"++++++++++++    XXXXoooo$$$$$$$$$$$$$$$$ooooXXXX    ++++++++++++",
"++++++++++++    XXXXoooo$$$$$$$$$$$$$$$$ooooXXXX    ++++++++++++",
"++++++++++++    XXXXoooo$$$$$$$$$$$$$$$$ooooXXXX    ++++++++++++",
"++++++++++++    XXXXoooo$$$$$$$$$$$$$$$$ooooXXXX    ++++++++++++",
"++++++++++++    oooooooo$$$$%%%%%%%%%%%%oooooooo    ++++++++++++",
"++++++++++++    oooooooo$$$$%%%%%%%%%%%%oooooooo    ++++++++++++",
"++++++++++++    oooooooo$$$$%%%%%%%%%%%%oooooooo    ++++++++++++",
"++++++++++++    oooooooo$$$$%%%%%%%%%%%%oooooooo    ++++++++++++",
"++++++++    &&&&&&&&oooo################oooo&&&&&&&&    ++++++++",
"++++++++    &&&&&&&&oooo################oooo&&&&&&&&    ++++++++",
"++++++++    &&&&&&&&oooo################oooo&&&&&&&&    ++++++++",
"++++++++    &&&&&&&&oooo################oooo&&&&&&&&    ++++++++",
"++++++++    &&&&&&&&########@@@@@@@@########&&&&&&&&    ++++++++",
"++++++++    &&&&&&&&########@@@@@@@@########&&&&&&&&    ++++++++",
"++++++++    &&&&&&&&########@@@@@@@@########&&&&&&&&    ++++++++",
"++++++++    &&&&&&&&########@@@@@@@@########&&&&&&&&    ++++++++",
"++++++++++++    ########@@@@        @@@@########    ++++++++++++",
"++++++++++++    ########@@@@        @@@@########    ++++++++++++",
"++++++++++++    ########@@@@        @@@@########    ++++++++++++",
"++++++++++++    ########@@@@        @@@@########    ++++++++++++",
"++++++++++++    XXXXoooo    ++++++++    ooooXXXX    ++++++++++++",
"++++++++++++    XXXXoooo    ++++++++    ooooXXXX    ++++++++++++",
"++++++++++++    XXXXoooo    ++++++++    ooooXXXX    ++++++++++++",
"++++++++++++    XXXXoooo    ++++++++    ooooXXXX    ++++++++++++"
};
