/* XPM */
static char *_c8f9af309bd4fddf67bad3a28a41665ZKAq4x1jzHA0h39H[] = {
/* columns rows colors chars-per-pixel */
"64 64 11 1 ",
"  c black",
". c #21110D",
"X c #402717",
"o c #573A23",
"O c #AC7B5D",
"+ c #509B66",
"@ c #1D438A",
"# c #2C65B5",
"$ c #787E97",
"% c #A4A8B5",
"& c #C1AC8F",
/* pixels */
"++++++++++++                ++++        ++++++++++++++++++++++++",
"++++++++++++                ++++        ++++++++++++++++++++++++",
"++++++++++++                ++++        ++++++++++++++++++++++++",
"++++++++++++                ++++        ++++++++++++++++++++++++",
"++++++++++++    ooooooooXXXX    oooo            ++++++++++++++++",
"++++++++++++    ooooooooXXXX    oooo            ++++++++++++++++",
"++++++++++++    ooooooooXXXX    oooo            ++++++++++++++++",
"++++++++++++    ooooooooXXXX    oooo            ++++++++++++++++",
"++++++++++++        ooooooooXXXXooooXXXXoooooooo        ++++++++",
"++++++++++++        ooooooooXXXXooooXXXXoooooooo        ++++++++",
"++++++++++++        ooooooooXXXXooooXXXXoooooooo        ++++++++",
"++++++++++++        ooooooooXXXXooooXXXXoooooooo        ++++++++",
"++++++++    XXXXoooooooooooooooooooooooooooooooooooooooo    ++++",
"++++++++    XXXXoooooooooooooooooooooooooooooooooooooooo    ++++",
"++++++++    XXXXoooooooooooooooooooooooooooooooooooooooo    ++++",
"++++++++    XXXXoooooooooooooooooooooooooooooooooooooooo    ++++",
"++++    XXXXooooXXXXXXXXooooooooXXXXOOOOOOOOOOOOOOOOXXXX    ++++",
"++++    XXXXooooXXXXXXXXooooooooXXXXOOOOOOOOOOOOOOOOXXXX    ++++",
"++++    XXXXooooXXXXXXXXooooooooXXXXOOOOOOOOOOOOOOOOXXXX    ++++",
"++++    XXXXooooXXXXXXXXooooooooXXXXOOOOOOOOOOOOOOOOXXXX    ++++",
"++++    XXXXooooooooOOOOXXXXooooOOOO....&&&&&&&&....        ++++",
"++++    XXXXooooooooOOOOXXXXooooOOOO....&&&&&&&&....        ++++",
"++++    XXXXooooooooOOOOXXXXooooOOOO....&&&&&&&&....        ++++",
"++++    XXXXooooooooOOOOXXXXooooOOOO....&&&&&&&&....        ++++",
"++++    XXXXXXXXooooOOOOOOOOXXXX&&&&....&&&&&&&&....        ++++",
"++++    XXXXXXXXooooOOOOOOOOXXXX&&&&....&&&&&&&&....        ++++",
"++++    XXXXXXXXooooOOOOOOOOXXXX&&&&....&&&&&&&&....        ++++",
"++++    XXXXXXXXooooOOOOOOOOXXXX&&&&....&&&&&&&&....        ++++",
"++++++++    XXXXXXXXOOOOOOOO&&&&&&&&&&&&&&&&&&&&&&&&    ++++++++",
"++++++++    XXXXXXXXOOOOOOOO&&&&&&&&&&&&&&&&&&&&&&&&    ++++++++",
"++++++++    XXXXXXXXOOOOOOOO&&&&&&&&&&&&&&&&&&&&&&&&    ++++++++",
"++++++++    XXXXXXXXOOOOOOOO&&&&&&&&&&&&&&&&&&&&&&&&    ++++++++",
"++++++++++++    XXXXXXXXOOOOOOOO&&&&&&&&&&&&&&&&OOOO    ++++++++",
"++++++++++++    XXXXXXXXOOOOOOOO&&&&&&&&&&&&&&&&OOOO    ++++++++",
"++++++++++++    XXXXXXXXOOOOOOOO&&&&&&&&&&&&&&&&OOOO    ++++++++",
"++++++++++++    XXXXXXXXOOOOOOOO&&&&&&&&&&&&&&&&OOOO    ++++++++",
"++++++++++++++++    XXXXXXXXOOOOOOOOOOOOOOOOOOOO    ++++++++++++",
"++++++++++++++++    XXXXXXXXOOOOOOOOOOOOOOOOOOOO    ++++++++++++",
"++++++++++++++++    XXXXXXXXOOOOOOOOOOOOOOOOOOOO    ++++++++++++",
"++++++++++++++++    XXXXXXXXOOOOOOOOOOOOOOOOOOOO    ++++++++++++",
"++++++++++++++++    XXXXXXXXoooo$$$$$$$$$$$$XXXX    ++++++++++++",
"++++++++++++++++    XXXXXXXXoooo$$$$$$$$$$$$XXXX    ++++++++++++",
"++++++++++++++++    XXXXXXXXoooo$$$$$$$$$$$$XXXX    ++++++++++++",
"++++++++++++++++    XXXXXXXXoooo$$$$$$$$$$$$XXXX    ++++++++++++",
"++++++++++++++++    XXXXoooooooo$$$$$$$$%%%%XXXX    ++++++++++++",
"++++++++++++++++    XXXXoooooooo$$$$$$$$%%%%XXXX    ++++++++++++",
"++++++++++++++++    XXXXoooooooo$$$$$$$$%%%%XXXX    ++++++++++++",
"++++++++++++++++    XXXXoooooooo$$$$$$$$%%%%XXXX    ++++++++++++",
"++++++++++++    &&&&&&&&oooooooo$$$$%%%%%%%%XXXXOOOO    ++++++++",
"++++++++++++    &&&&&&&&oooooooo$$$$%%%%%%%%XXXXOOOO    ++++++++",
"++++++++++++    &&&&&&&&oooooooo$$$$%%%%%%%%XXXXOOOO    ++++++++",
"++++++++++++    &&&&&&&&oooooooo$$$$%%%%%%%%XXXXOOOO    ++++++++",
"++++++++++++    &&&&&&&&oooooooo############XXXXOOOO    ++++++++",
"++++++++++++    &&&&&&&&oooooooo############XXXXOOOO    ++++++++",
"++++++++++++    &&&&&&&&oooooooo############XXXXOOOO    ++++++++",
"++++++++++++    &&&&&&&&oooooooo############XXXXOOOO    ++++++++",
"++++++++++++++++    @@@@########@@@@########        ++++++++++++",
"++++++++++++++++    @@@@########@@@@########        ++++++++++++",
"++++++++++++++++    @@@@########@@@@########        ++++++++++++",
"++++++++++++++++    @@@@########@@@@########        ++++++++++++",
"++++++++++++++++    XXXXoooo        XXXXoooo    ++++++++++++++++",
"++++++++++++++++    XXXXoooo        XXXXoooo    ++++++++++++++++",
"++++++++++++++++    XXXXoooo        XXXXoooo    ++++++++++++++++",
"++++++++++++++++    XXXXoooo        XXXXoooo    ++++++++++++++++"
};
